/* XPM */
static char *a06b1c3df389414b9aa51e23029aab89An9fbHhcLIZlWIaP[] = {
/* columns rows colors chars-per-pixel */
"128 128 54 1 ",
"  c #232323",
". c #282828",
"X c #2C2C2D",
"o c #322D22",
"O c #302D2D",
"+ c #3D3626",
"@ c #57371B",
"# c #633F1F",
"$ c #423629",
"% c #453F2A",
"& c #4F3F2B",
"* c #5B4326",
"= c #53472C",
"- c #674027",
"; c #704628",
": c #7A4B2B",
"> c #604C33",
", c #6D5536",
"< c #7B5C3C",
"1 c #434343",
"2 c #777777",
"3 c #72727F",
"4 c #814F30",
"5 c #8C5637",
"6 c #975B37",
"7 c #985D3F",
"8 c #9F633F",
"9 c #866741",
"0 c #976E45",
"q c #A76743",
"w c #A56446",
"e c #AB6B47",
"r c #AF6F4B",
"t c #A0764A",
"y c #AD7F4E",
"u c #B3734F",
"i c #B36B53",
"p c #B47150",
"a c #9B696A",
"s c #AF7A7A",
"d c #B78C58",
"f c #C18564",
"g c #C49A69",
"h c #CF9876",
"j c #848484",
"k c #BC8A8A",
"l c #AEAEAE",
"z c #D5AE80",
"x c #E3B490",
"c c #FFD78D",
"v c #E5C196",
"b c #F4CAA7",
"n c #F5D4AC",
"m c #FEEBAA",
/* pixels */
"pepppwpfdt00<-47pfpppffffpppwwfhft<-47pfpppffffpppwwfhf<-47pfppppppfp74-<fhfwwpppffffpppfp74-<tfhfwwpppffffpppfp74-<00tdfpwpppep",
"pwwtwwwfyt00<;47pppppppppppww7pgft5;47pppppppppppww7pgf5;47pppppppppp74;5fgp7wwppppppppppp74;5tfgp7wwppppppppppp74;<00tyfwwwtwwp",
"pepppwpfdt00<-47pfpppffffpppwwfhft<-47pfpppffffpppwwfhf<-47pfppppppfp74-<fhfwwpppffffpppfp74-<tfhfwwpppffffpppfp74-<00tdfpwpppep",
"pwwtwwwfyt00<;47pppppppppppww7pgft5;47pppppppppppww7pgf5;47pppppppppp74;5fgp7wwppppppppppp74;5tfgp7wwppppppppppp74;<00tyfwwwtwwp",
"w577777pt0774;57wwpww7wwppp777pfyt5;57wwpww7wwppp777pfy5;57wwpwwwwpww75;5yfp777pppww7wwpww75;5tyfp777pppww7wwpww75;4770tp777775w",
"44<57447754::;44444:444<575<4:70005;44444:444<575<4:7005;44444:44:44444;5007:4<575<444:44444;50007:4<575<444:44444;::45774475<44",
"&**--*>,,,,>>@>>*@&*&&**-->>*&>,>,>@>>*@&*&+**-->>*&>,>>@>>*@&*&,<,4<9949909,<9955<<,,<,4<99490909,<9955<<,,<,4<9949900009<55<<,",
",<,<,,,<<<<<<<<<,,<<<<9999<<<<<<,<,,<,,,=+o=,0<4<<<<<<<<<<<<,<<,0ttyddttttdyyyyyuddytydyyttt8tt0t000tt000000t0ttt0800ttyt00qt0tt",
"99999<<<<<900t09<9000tttttt000099999909<&>>dt90999009990ttt09099dfhzzhfffdhhhhhhhzzhhzzzzgddydyyyyyyddyyyyyddddddyyyyyydyyyddyff",
"3ggdddyyyddgggggffggghzxxzzggggfddddyyty9>hxyddddfggggggghggggf3ghxbvzghhgzzzzzxvvvvvbbvxzggfddddddddddddffggggggffdddddddfggdhh",
"zzzggggggggzzzzzzhzzzzvbnbvzzzhggggggdy00dhdggggggzzxzzzzzzzzzhghzvbxzhzhhzzzzxvvvvvbbbxzgggfdddddddddddfdggggggffggdddddddfgdhh",
"hhggggggggghhhggghzzxzvvnbvzzzhgggggfdd<0xddfggggggzzzhggghzhggggzzzhhhzhhzzzzvvvvvvvvzzggggfddddddddgggfdfdgfffdfggfddddggggdhh",
"hhggggggggggggggghzzxxvvbnvxxzzggddfd00dhdgggggggggzzzzgggggggggggzhggghhhzzzxvvvxxvxzhghghggdfddddfggggddgffddddddfffddgggggfhh",
"ggggggggggggggggggzzxxxvvvbvvxzzgd00dhxhddgggghgggghhggggffgggffggggggggghhhzzvvvvxzzggghgggfgggddddgghfdfgfdddddddggggggggggggh",
"ggggggggggggggggghhzxvvvvvnnvvzzgt0xhddddfgghgzzhggggdgggffgggffggfffgggghhggzvvvxzzhhhgggggggggddfgghhgggggfdddddfggggggggggggg",
"gggggggggggggggggghgzzzxxvbnnvzgdtxddddddggggzzvzhggfyggggggggggggfddggggghgghxxzzzggghggggffgggddfgghzggggggdddddgggggggggggggg",
"gfgfgggggggggggggggghhhhhzvnnbzgdggfdddfggggggzzvvxzhgdgggggggggggggggggghzgghxxzzgghgggggffffggfdgdghzgggggggfddgggggggggggggdd",
"hfgggggfgffffgggfgggghgdghzvnnvzgghggdddfgggggzzxvvvhfdggggggggghhggggddgzzhhzzzggghgffgfdddddgggggdghzzggggggddfggggggggggggddd",
"gfgggggfgffgggggffggggggfggxvnmvxzzgggfddggggghhzzvvzdydggggggggzzzgggdfgzzggzzzggggffffdddddfgggggdgzxzgggggggggggggggggggghggd",
"hggggggggffffgggfggggggftthvnnvzgghggdddfgggggzzxvvvhfddgffffgfgzzzggddgzzzggggggggfdffgggfdfggggggfhzxzggggggggggggggggggggzhzh",
"ggggfggggffgggggffgggghgffhxvnmvxzzgggfddggggghhzzvvzfdddffffffgzxzzgdghzzhgggggggfgfgggggfdfggggggghzzhggggghhzzhgdggggzzggzhhg",
"hgggfgggggggggggffgggzzhhtgzxvnnbxzzhggfddgggghhhzxvzgyyddggfddgzzzggghxxzhgggggggffggggghgffgggfgggghzggggghzzxzzgggzgggzggzhgd",
"gggggggggggggggggfgggzzxhgghzvnnnvvzzgggddggggggghzzzgyyydggddyyzzzgggzvvzgggggggggghhzzhhhgfgggfgggghhgggghzzxxvxzhzzhggzzhzhgd",
"ggggfgggggggggggggggghhhhgdghzbbnbbzhgdddddgggggggzxzgyyydggddy0hzggggvvzzgggghhggggzzzzzgggggggfgggghhgggghzzzzzzzzzzggggzzzhhg",
"hgggfgggggggggggghhzdydggdyyfhhhhzhggyytyyddgggggggggdytydggdddfggggdgzvzzd0dzvzhghhzzvzzhgggggggfggghhgghzzzzzzggggggggggzzzzvv",
"gggggggggggggggggghddyddggdf0ydfggddy0tyyyydggggfffydyyydgggggggggggdgxvxhdtgzvxzhzzzvzzzhggggggggggghzzzzzzzzzgggggggggggghhzzx",
"gggggggggggdddghzhggghhzzzzzhhhzzzzzhhhzzzhzzzzzhhgdffddggggggggggggggvxzfythzxzzzzvxzhzzhzgzggggggghzzzzzzzhhggggdggggggggghhzz",
"gggggggggggdyyzzxzffzzzxxccxxxzxxcxxzxxccxxxxxxxxzgdffddgggggggghzgghzxzzfdfzxvzzzzzhggzzhgggggggggghzzzzzhhhzhgggghzhggggggdddd",
"hggggggggggdyepfgfpppfffghhfffffghffffghhffffhffhdtdddddggggggggzzgzzxzzggghzxzzgggggdgghggggggggggghzzhhhhzzzzhhgzzzggggggdddyy",
"gggggggggggdt8wpffppwpppffffffppffffppfffffffpppft0trydddgggggggzzhhzzzgfghzxzzgggggdddhhgdddgghhggggggggghzzzzzzzzxzggghggggddy",
"hggggggggggdt7wpfffppwwppfffffwppfffwppffffffppppt77wyyddgggfgggzzhhzzhddgzvxzgggggggghzhgddydhzzgggggggghzzzhhzzzzzhgggzggzzzgg",
"gggggggggggdt6wwppfpw777wppppp77wppp77wpppppppppww550yyddgffffgfzzzghzgddhvvzhgggggghzzxzhgddgzzzhgggggggzhggdghzzzhgdfhzhzzxzzh",
"fyyyyyyyyyyt0;:44;##@##-;;;;;;#@#-;;;;;--#--##@@@#9570ttyddyyydyzzzzhhgdgzvvzggggggggzzzzzzgghzxhgdddghzhzhgdddgzzzgdggzhggzzzzz",
"t,,<<<99<9<<,<<,,<XXXXXXXXXXXXXXXXXXXXXXXXXXX+<99<<,<<9<99<<<,,tzzhggggdggxxzggggggggghgzzzgggzzhgytygzzzzhgdydgzzzzgzzzhgggghzz",
"0>>>>>>>>>==>>>>>>.>>>>>>>>>>>>&&+>>>>>>>>>>> >>>>>>==>>>>>>>>>0zzhgfggddgzxzhggggggggggggggghzzhgytazxzzhhggggzhhghzzxzggggggzz",
"0>>>>>>>>>>>>==>>>1OOOOOOOOOOO>&&>OOOOOOOOOOO+>>>==>>>>>>>>>>>>0hgggfggddhzxzggggggggggfffgghzxzhgdskvvvzggdghzzzzzzxxzhgffggggg",
"0>>=$$$$$$$$$$$=>>1OOOOOOOOOOO<>>0OOOOOOOOOOO+>>=$$$$$$$$$$$=>>tgggggggggzzxzggggggggfffddfghzxzggfhxvvzzgddgzzzzzzzzhhggfgggggg",
"0>>%&========&&%>>1OOOOOOOOOOO0<d0OOOOOOOOOOO+>>%&&========&%>>tggggggggghhzzhgggggfdddddddggzzhgggzxvxzggydggzzxxxzzggggggggggg",
"9>>%,<0<0<<<,,>%>>1OOOOOOOOOOO0000OOOOOOOOOOO+>>%>,,<<<0<0<,%>>tggggggfgffgzzhggffffddddddgggggggfghzzzhggdddghzxzzgdydggggddfgg",
"9>>%&>=====>>>%&>>1OOOOOOOOOOO00d0OOOOOOOOOOO+>>&%>>>=====>&%>>tggggggggdydhzhgdfgggddgggfggggggfffggzzzggfdydhzzhgyttgghggggggh",
"9>>%%&=&&&***&%&>>1OOOOOOOOOOO0000OOOOOOOOOOO+>>&%&***&&&=&%%>>tffggggggdyfzzhgddggggggggggggggggdyygzzhgghhgzxxzggyaszzhgghgzzz",
"0>>%>,,,99,9,,,&>>1OOOOOOOOOOO0000OOOOOOOOOOO+>>&,,,9,99,,,>%>>tfgggggggddgzxzgddgzggggggggfffffdyaygzzgggghhzxzgggfghxzhgghzzzz",
"0>>%%>>>>>>>>>%&>>1OOOOOOOOOOO<0d<OOOOOOOOOOO+>>&%>>>>>>>>>%%>>tdggggggggghzxzdydhzhggghzhfddfddydsgzzzgggggzzxzgghghzzzhgfghhhg",
"0>>%%&*******&%&>>1OOOOOOOOOOO<00<OOOOOOOOOOO+>>&%&*******&%%>>tgggggggzzzzzzzddgzzhggzzzhfdddddgzxzxzzggffghzzzzzzhghhggfffgggg",
"0>>%,,<<<0<<<,,&>>1OOOOOOOOOOO<0d<OOOOOOOOOOO+>>&,,<<<0<<<,,%>>tgggggghzzzzzzggdgzzzzzzzzgfddgdghvvzzzzhggfgggzzzzzggfffdddggggg",
"0>>%%========>%&>>100000000000<00<00000000000+>>&%>========%%>>thzgggzzzhzzzgggdghxzzzzhggfdfgghxvxgggggggggggghzzhgffdddddfgggg",
"0>>%%&&&&&&&&&%&>>1<ddhdd<ddd<<td<dddhhdddhhd+>>&%&&&&&&&&&%%>>0hhfgzzggghgggggdghxzzgggfdddggggzzzggghhhhggdghzzhggdddddddfgggg",
"0>>%>,,,9,9,,>&&>>1<<<<<<<<<<<<0d<t<<<<<<<<<<+>>&&>,,9,9,,,>%>>0hhghzzhhhhgggggdgzxzhgfddddggggggghgggzzzzggdgzzzhgggddddddfghhh",
"0>>%%>>>>>>>>&%%>>1OOOOOOOOOOO00d<OOOOOOOOOOO+>>%%&>>>>>>>>%%>>0gghzzzggghggghhgzzzhgfdddddfffdfgggghzxxzzhggzzzzggggggdddddggzz",
"0>>&===>======&&>>1OOOOOOOOOOO0dd0OOOOOOOOOOO+>>&&======>===&>>0ggzzzggggggghzggzzzggfdddddddddffddygzxzzgggghzzhgggggggddddggzz",
"0>=,,,999,,9,,,=>>1OOOOOOOOOOO0hd0OOOOOOOOOOO+>>=,,,9,,999,,,=>0ggggggggggghzhggzzhgfdfdddddddgggdydhzxhgfffgggggggggggggddddghz",
"0>>>>>>>>>>>>>>>>>1OOOOOOOOOOO0hd0OOOOOOOOOOO+>>>>>>>>>>>>>>>>>0dggggggggggzzgdgghggddfddddddfggggggzxzgffffggggfffggggggddddghz",
"0>>>>>>>>>>>>>>>>>1OOOOOOOOOOO0dd0OOOOOOOOOOO+>>>>>>>>>>>>>>>>>0ggggggggzhhhggghzzggddgggffdfgggghzzxzhgfffgggggffdgggggggfddghz",
"0>>=========>===>>1OOOOOOOOOOO0d0<OOOOOOOOOOO+>>===>=========>>0ghhhgggzzzzhgghzzzggddgggggdfggghzzzgggggffgggggdgggggfgggggfghz",
"0>>=$$$$$$$$$$$=>>1OOOOOOOOOOO0000OOOOOOOOOOO+>>=$$$$$$$$$$$=>>0hzzzhhhzzzzgggzzzzhgffgggggggggghggdyydgggddydydghgggggggggggfgg",
"0>>%&========&&%>>1OOOOOOOOOOO0d0<OOOOOOOOOOO+>>%&&========&%>>0hzzzzzzxzhgggggghhggfgghgggffggzzgdyttddddyyyddggzgggggggggggddd",
"0>>%,<0<0<<<,,>%>>1OOOOOOOOOOO<00<OOOOOOOOOOO+>>%>,,<<<0<0<,%>>0hzzvvbbbxhghhgggggggdgggggfffghzhgdyygghhgdgggghzzzhhhggghhhhgdy",
"0>>%&>=====>>>%&>>100000000000<00<00000000000+>>&%>>>=====>&%>>thzzbnnnbzzhzhgggggggfggggfffdgghghgggzzzzzzzzxzxxzzzzzzzhzzzzggd",
"0>>%%&=&&&***&%&>>&<dhhhddhhdd<d0<hhhdddhhddd+>>&%&***&&&=&%%>>thzvnnnnvzzzzzzgghggfdggggfdddfggghggzxvvxxzxzxxxzzzzzzzzzzzzzzzz",
"0>>%>,,,99,9,,,&>>1<<<<<<<<<<<<00<<<<<<<<<<<<+>>&,,,9,99,,,>%>>thzvvbvxzhhhzzzzghgggggggggfdddgfggggzxxzzhhzzzzzzhhhgggggghhzgzz",
"0>>%%>>>>>>>>>%&>>1OOOOOOOOOOO0<00OOOOOOOOOOO+>>&%>>>>>>>>>%%>>thzzxvvzhggghzxzggggggghhgggdfddddfggzzzhgggggggggggddddddffggghh",
"0>>%%&*******&%&>>1OOOOOOOOOOO0dd0OOOOOOOOOOO+>>&%&*******&%%>>tgggzvxhggghgzzzhhzzhhzzzzhggfddddddggggffdfggggggffddddddfffgfgh",
"t>>%,,<<<0<<<,,&>>1OOOOOOOOOOO0dd0OOOOOOOOOOO+>>&,,<<<0<<<,,%>>tggzvvxhgggzzxzzzzzzzzvvvxzggddddddddfdfdddfggggggfdddddddddfgdhh",
"t>>%%========>%&>>1OOOOOOOOOOO0hd0OOOOOOOOOOO+>>&%>========%%>>0ghxbvzghhgzzzzzxvvvvvbbvxzggfddddddddddddffggggggffdddddddfggdhh",
"0>>%%&&&&&&&&&%&>>1OOOOOOOOOOO0dd0OOOOOOOOOOO+>>&%&&&&&&&&&%%>>0hzvbxzhzhhzzzzxvvvvvbbbxzgggfdddddddddddfdggggggffggdddddddfgdhh",
"0>>%>,,,9,9,,>&&>>1OOOOOOOOOOO<00<OOOOOOOOOOO+>>&&>,,9,9,,,>%>>0gzzzhhhzhhzzzzvvvvvvvvzzggggfddddddddgggfdfdgfffdfggfddddggggdhh",
"0>>%%>>>>>>>>&%%>>1OOOOOOOOOOO<00<OOOOOOOOOOO+>>%%&>>>>>>>>%%>>0ggzhggghhhzzzxvvvxxvxzhghghggdfddddfggggddgffddddddfffddgggggfhh",
"9>>&===>======&&>>1OOOOOOOOOOO<00<OOOOOOOOOOO+>>&&===>======&>>0ggggggggghhhzzvvvvxzzggghgggfgggddddgghfdfgfdddddddggggggggggggh",
"9>=,,,<<9,,,,,,&>>1OOOOOOOOOOO<0<<OOOOOOOOOOO+>>&,,,<<9,,,,,,=>0ggfffgggghhggzvvvxzzhhhgggggggggddfgghhgggggfdddddfggggggggggggg",
"9>>>>>>>jlj=>===>>1OOOOOOOOOOO<<<<OOOOOOOOOOO+>>===>>>jlj=>>>>>0ggfddggggghgghxxzzzggghggggffgggddfgghzggggggdddddgggggggggggggg",
"9>>>>>>=2j2=>>>>>>10hxxxhhxxhh0hhxxxxhhhxhhh0+>>>>>>>=2j2=>>>>>tggggggggghzgghxxzzgghgggggffffggfdgdghzgggggggfddgggggggggggggdd",
"0*&&&&&&&&&&&&&&&&9tyfffffggfyyyfggggfdffffytt&&&&&&&&&&&&&&&&*thhggggddgzzhhzzzggghgffgfdddddgggggdghzzggggggddfggggggggggggddd",
"0>***&&******><0xxxxhhhhzxxxxxhhzxxxxxhzxxxxxxxxxh9*&*****&****yzzzgggdfgzzggzzzggggffffdddddfgggggdgzxzgggggggggggggggggggghggd",
"t<,,,,,>>,,,<9ttfhhhhhhhhhhhzhhhhhzhhhhhhzhhhhhfhvy9,>>,,,,,,,<dzzzggddgzzzggggggggfdffgggfdfggggggfhzxzggggggggggggggggggggzhzh",
"y099<<<<<999999twppppfffppppfpppppfppppppfpppppwfhft<<<999<<<90dzxzzgdghzzhgggggggfgfgggggfdfggggggghzzhggggghzzzhgdggggggggzhhg",
"dyt000tttytyttt5wppppffffpppppfppppppwpppppppwwwfzfytt00000990tgzzzggghxxzhgggggggffgggggggffgggfgggghzggggghzzzxzgggzggggggzhgd",
"ddyyydddddddddd5wppffffffpwwwwfpwwwww7pwwwwww77wfhftyyyyyyttttygzzzgggzxzzggggggggggggggggggfgggfgggghzgggggzzvvvxzhzzzgggghzhgd",
"fddddgggggggggy4wwpppppppt7777pt777777t777777757phy0ydddyyyyyyyghzgggzvxzgggggggggggggggggggggggfgggghzgggghzvvvxzzzxzhgggzzzhhg",
"ggffggggggggggy945779999994<:4994<:44:94<:444:::9t9tyfddddddyydggggghzxzhggggggggggggggggggggggggfffhzzhhgghzvvvxzzzzzggggzzzhhh",
"ggggggggggggggt9>,,,,>>,,,,,>>,,,,>>>>,,,>>>>>>>,,,9yfddddddyydgdddgzxzggggghzgggzggggggggggggggfffghzzzhggghzxxxgghzzgghzzzzhhh",
"ggfffgggggggggy9,,,,>>>,,,,,,,,,,,,,,,,,,,,,,,,,,,,9yfdddfgddydgdyydghddghgghzghzzzggggggggggggggffghhgzzhhgzzxxzgghzzggggggzghg",
"gfffdddfggggggy09<<<,>,,<<<<<<<<<<<<<<<<<<<<<<<<<<90yfdddfgddyfgdddgggydhzgghxhzzxzggggggggggggggggggggzzzzzzzzhddhzzzgggggghggg",
"ddddddddggggggdt0000,,<000000000000000000000000000tydfddddddddgggghhggdgzzdgzvhzhzzggffgggggggggggggggzxvxxxzxzgydhzzzgggggggddy",
"dddddddfggggffddyyyy9,9yyddyyyydddyyyydddyyyyyyyyyydffddddfdddgghzzzzzzzzhdgzvzzhzzhgfdgggggggggghzzzzvvbvvxzzgdygxxzzgggggggdfd",
"gddffddggghgddggddfy999dgggggggggggggggggggggggggddddfddddddddgghzzzzxvxzhghzxzzhzzhgddggggggggghzzzzxvbnbvzzzgghzxzzhggggghgghh",
"gddfddfgghzhddgggggd090fggggggggggggggggggggghzxxgytdddfddddddgghhzzxvxxzzhzzzhhhzhgfddfghhzzhhhzzzzxvbnnbxzzzhhzzxzzhgggggzzzzz",
"gdfffffgghxzdyfhggggt0tdggggggggggggggggggggffgzzzghgfdddfgdyyddghzzzzzzzzzxzzggggggddddfgggggggghzzzvbnbvzzzzhzzzzzzggggggggzzz",
"gfgffdfggzxzgddgggzzytyggggggggggggggggggggggggzhhgggfdddfgddyddggghzhggghzzzggggggfddddddffggggghzzzvbnvvzxzzhggghhhggggggggghh",
"dfffdddfgggggggghhzhdydgggfggggggggggggggggggggzhhghgfdddfgddyfdgggggggggzzzzgggggggggddddddffgggzzxxvnbvvxxzzhggggggggggggggghh",
"dddddddddgggggfgghhzfddggfdfggggggggggggggggggzhhgggfddddddddgfdffgggffgggghhgggghggggdddddddfggzzxvvbvvvxxzzggggggggggggggggggg",
"ddddddddfggggffgghhzfffgggfgfffgggggggggggggggzhgdfgfddddfdddggfffgggffgggdgggghzzghggfddddddfggzzvvnnvvvvxzhhgggggggggggggggggg",
"ddddffddggghgddggghzdfgggffggffgggggfgggggggghzzgyydfddddddddggfggggggggggyfgghzvzzggggddddddggggzvnnbvxxzzghggggggggggggggggggg",
"fdddfddfgghzhddghghzgfhgggggffggggfggggggggghzxxgytdddfddddddgggggggggggggdghzxvvzzgggggfdddfggdgzbnnvzhhhhggggggggggggggggfgfgh",
"fddfffffgghxzdyfgggzgfgggfdfggggggggggggggghzzxvzdtyddggfddddgggggggggggggdfhvvvxzzggggfdddgghggzvnnvzgsdgggggfgggffffgfgfgfgfhh",
"ggfgffdfggzxzgddgggzgdhggggfgggggggggggggghzzzxxzdyyfgggggdddggggggggggggdydzvvzzhhggggddfgggzzxvmnvxgsaghgggffgggggffgfgggggfgh",
"ggggggggghzxzgdggghzddhghggghhhhhhhhhggggghzzhzzzdddggggggdydgggggffgfffgytszvxzhhhgggddfgghzzxbnnvxzssgzzgggffggggggggggfgggghh",
"ggggggffgghzggdgfddgddhggggggggggggggggggghzzggghdyyggggggdyyfgghggffdgggyygzvzhggggggddgggzzvvnnnvzgdgzxzgggfgggggggggggfffgggh",
"ggghhhhhhzzzhgdggddhddghzzzzzzzhzzzzhgggggzzzgggzggdhzhgggdyyggghgggfdggfyygzxzhggggggddfghzxbbnbbxzgdhzzhggggggggggggggggffgfhh",
"ggghhzzzzzzzzhghzhgzgggzzzzzzzzzzzzzzhggghzxzggdhdggzzzhhhdydghhhgggddggfddhzxzgggggggffdggzvbbnvvxhdgzxzgghhhgggggggggggggggggh",
"ggghhzzzzzzxxxzzxzzxhgghxxzzzzzzzxxxzhggggzxxggdgdggzzzhhgdddhzzhgggdfdggdygzzzgggggggggfgghzvbbvxzgdgzzhgghzzgghzgggggggggggghh",
"gdfghzhhzzzzzzzzzzzzzhhgzzzzzzzhhhghhgdyydghzgdygdghzzzzhhgdgzzhhgggdddggddgzxzhgggggggggfghxvbvzzhfghzhggghzzfggzzggggggggggghh",
"fddghhgggggzzzhggggzzhhghzzzzzzzzhggdddyyyddfddydghzzzzzhhggghhghggggfggggdhzxzhhhhgfdgggfghxvbxzgggzzzgggggzgfghzzgggggggffgggg",
"dddghhhgggghhhgddddhzzhfghzzzzzzzhhzhddyyyddffddghzxzxzzzzgghzgghggggggggggzzxzghhzggghzgghzvvvzggghzzhggggghhghzzzggggggggggfgg",
"dddfgggggggggggddddgzzhfghhzzhzzzxvvxzgdddgzzzhghhzzzzzzhhhhzhgfhggggggggggzzzhghzzgghzhgggzxxzhggghhggggggghzzzzzhggggggggggffd",
"ddfggggggggggggfdddgzzhdgggggggghzzvvvzgggzxxxzzhghhhhhggghzzzgghggggggggggzxzgggggghzzhggghzxzhhggggggggggghzzzzzhggghhzhggggfd",
"gggggggggggggggggdfgzzhdgfgggffghzzzvvxzzzzxvvxzgddghzzgggzxxzhghhggggggghzzzgggggggggghhgghzxzzhggggggggggghggzzzggddgghghhgggd",
"gggggggggggggggggfghzzhdgfgggddghhhhzxxxzzzzzzzgddghzzzzhgzxxzhghgggggghhzzzzgggggggggghhhhzzxxzzgggggzhggggggggggggddhhggghgggg",
"dgggggggggggggggggghzzhdgfgggfgghhgghzzzzzzzhhgdddgghhzhhhzxvzgdhhhzzzzzzzzzzggggggghggghhzxvxzzzggghzzhgggggggggghgggzgddggdggh",
"dggggggggggggggggggzxzhfgfgggfgggggggghhhzzzzhgdddgdgghhzzzxvxgyhgghghghgggghggggggggggddgxvvzzzhggghzzhgggggggggzzzzzxgdddddghz",
"dfgggggggghzgddgggghzzhdgddfggggggdfdggggzzzzzzgddddgggghhzvvvzfgffgghzhfddhzzhggghzzgdydgvbvzzggggggghhhhgghhggzzxxxvxzgggggzzz",
"gggggggggghzgddggggzzzhdfddfgggggdddddfgghzzxvvzzgggghhgggzxxzzzhgghhzzzgdgzxzzzhhzzzhgdgxvvzhgggggggggzzzghzgghvxxzzzzzzzzzzxzz",
"zgggggggghzzggdghggzzzhdfddfggggfdddddffgghzxvbvvxzzzzhgggzzzzzzhzzzzzzzhhzvvxzzhzzzxzhhznnvzhghggfffghzzzzzgdggzzzzggzzxxzzxzhg",
"zhgggggghhhhdddgggghzzhggddfggggddddddffgghzzxxvvxzzhhggggzzzzhzzxvxzzzzhgzxvzggzzzzzhghvnvzhhhggddfghghggghfdfhzzzgggggzzzhzhgf",
"ggggggghhhhhdddgggghzzhggffgggggddddddffggghzhzzzzhggggggghhzzhhhzzzgggggggzxgggzzzggdgzvvzggggggddghzggggggggghzzzgggggggggggdd",
"ggggggghzzhhhgggggghzzzggggggggfddfdddfggghhzgfdgggggggggggggghggghgggghhdghxgggzxzhgdgxvxzggggggydhzzgggggghhhzxxzggggggffdfggg",
"ggggggghzzzzzhggggghzzzgggggggggfggggffggghzzggdgggggggggggdydgggggggggzggghzhghzxzgdgzvxzhgfggggddhxzgggggghgzzvzhggggggfffgggg",
"ggggggghzzzzhhggggghzzhggggggggggggggggggghzxhgdggggggggggggddgggggggghzgdskzxghzxxhgzvvzhgfffgggdgzxzggggggggzzzzgggggggggggggg",
"ghggghhhghhgggggggghhhgggggggggggggggggfgghhzhhgggggddgggghzggghgggggghgdddhzvzzzxxzzzvxzgggfgffgggzxzgggggggggzzhgggggggffggggh",
"hzhhghhhgggggggggghhhhggggggffgggggggggggghhgghzghhhggggggzxzhghgggggggggghzxvzhzzxzzzzzhgggggffgggzzzgggggggggggggzzzzggfffgghz",
"hhzhhhgghhhggfggghhzzhgggggdddggggggggggghzzggghghzzhgggggzvzhgggggggggggzvvvvxzzzxzzzhggggggggfgggzzzgggghghghgggzzxvzhgfgggggh",
"hhzzhggghhzhhggghhhzzhgggggffgggggggggggghzzhgghghhzhggggghzzggggggggghzxbbvvvvxvxzzggggggggggggggghzhggghzzzzzgghzvbvzhgggggghh",
"hghhhgggggzhzhhhhzzzhhgggggggghghggggggghhhzgddgggggggggggghzzzggggggzzxvvvvvvvvxzzzggfgggggggggggggggggzzvvvzzghzvbbvzggggggghh",
"ddggggggggghzzzzhhggdggggggggghhhggggggghzzzggydggggggggggddghgfgggzzzzvvvvvvvxzzzzhgfffggggggggggfffgggzvvvxzzzzvbnvzhggggggggh",
"ddgggggggggghzzzhhgddgggggggghhhhgggggghzzggggyygggggggghg9tdggdggzzzxxvvbbvvxzzgggggddggghggggggggfffgzzvvvxzzzzvnnvhgggggggggg",
"yddfdddddddddddgfdddddddgggddffgfdytyddyffdddddygggddggdyytyyggdddgdgggdghzhhgggggfdddydyddytyddfddyffggggggggdggggggfddddddddfg",
"www777579<<,-@-<55557ww7775557wy7<-@-<55557ww7775557wy7;@-<5555775555<-@;7yw7555777ww75555<-@-<7yw7555777ww75555<-@-,<<975777www",
"uuuuww5u095<,-;5www7wuuuwww777ufi04-;5www7wuuuwww777ufi4-;5www7ww7www5;-4ifu777wwwuuuw7www5;-40ifu777wwwuuuw7www5;-,<590u5wwuuuu",
"fffffpwfdt00<-47pfpppffffpppwwfhft<-47pfpppffffpppwwfhf<-47pfppppppfp74-<fhfwwpppffffpppfp74-<tfhfwwpppffffpppfp74-<00tdfwpfffff"
};
