/* XPM */
static char *_5371fa4c7854a18cf43a50fffd488aafN6zjFAVuD7yl08s[] = {
/* columns rows colors chars-per-pixel */
"128 128 33 1 ",
"  c #57371B",
". c #674027",
"X c #704628",
"o c #7A4B2B",
"O c #6D5536",
"+ c #7B5C3C",
"@ c #814F30",
"# c #8C5637",
"$ c #985D3F",
"% c #9F633F",
"& c #866741",
"* c #976E45",
"= c #A76743",
"- c #A56446",
"; c #AB6B47",
": c #A0764A",
"> c #AD7F4E",
", c #B3734F",
"< c #B36B53",
"1 c #B47150",
"2 c #9B696A",
"3 c #AF7A7A",
"4 c #B78C58",
"5 c #C18564",
"6 c #C49A69",
"7 c #CF9876",
"8 c #BC8A8A",
"9 c #D5AE80",
"0 c #E3B490",
"q c #E5C196",
"w c #F4CAA7",
"e c #F5D4AC",
"r c #FEEBAA",
/* pixels */
"11151$@.+575--111555511151$@.+:575--111555511151$@.+**:451-111;111151$@.+575--111555511151$@.+:575--111555511151$@.+**:451-111;1",
"11111$@X#561$--11111111111$@X#:561$--11111111111$@X+**:>5---:--111111$@X#561$--11111111111$@X#:561$--11111111111$@X+**:>5---:--1",
"11151$@.+575--111555511151$@.+:575--111555511151$@.+**:451-111;111151$@.+575--111555511151$@.+:575--111555511151$@.+**:451-111;1",
"11111$@X#561$--11111111111$@X#:561$--11111111111$@X+**:>5---:--111111$@X#561$--11111111111$@X#:561$--11111111111$@X+**:>5---:--1",
"--1--$#X#>51$$$111--$--1--$#X#:>51$$$111--$--1--$#X@$$*:1$$$$$#---1--$#X#>51$$$111--$--1--$#X#:>51$$$111--$--1--$#X@$$*:1$$$$$#-",
"@o@@@@@X#**$o@+#$#+@@@o@@@@@X#***$o@+#$#+@@@o@@@@@Xoo@#$$@@$#+@@@o@@@@@X#**$o@+#$#+@@@o@@@@@X#***$o@+#$#+@@@o@@@@@Xoo@#$$@@$#+@@",
"O+O@+&&@&&*&O+&&##++OO+O@+&&@&*&*&O+&&##++OO+O@+&&@&&****&+##++OO+O@+&&@&&*&O+&&##++OO+O@+&&@&*&*&O+&&##++OO+O@+&&@&&****&+##++O",
"*::>44::::4>>>>>,44>:>4>>:::%::*:***::******:*:::*%**::>:**=:*::*::>44::::4>>>>>,44>:>4>>:::%::*:***::******:*:::*%**::>:**=:*::",
"4579975554777777799779999644>4>>>>>>44>>>>>444444>>>>>>4>>>44>554579975554777777799779999644>4>>>>>>44>>>>>444444>>>>>>4>>>44>55",
"670wq96776999990qqqqqwwq0966544444444444455666666554444444566477670wq96776999990qqqqqwwq0966544444444444455666666554444444566477",
"79qw09797799990qqqqqwww0966654444444444454666666556644444445647779qw09797799990qqqqqwww09666544444444444546666665566444444456477",
"69997779779999qqqqqqqq99666654444444466654546555456654444666647769997779779999qqqqqqqq996666544444444666545465554566544446666477",
"66976667779990qqq00q0976767664544445666644655444444555446666657766976667779990qqq00q09767676645444456666446554444445554466666577",
"66666666677799qqqq099666766656664444667545654444444666666666666766666666677799qqqq0996667666566644446675456544444446666666666667",
"66555666677669qqq0997776666666664456677666665444445666666666666666555666677669qqq09977766666666644566776666654444456666666666666",
"66544666667667009996667666655666445667966666644444666666666666666654466666766700999666766665566644566796666664444466666666666666",
"66666666679667009966766666555566546467966666665446666666666666446666666667966700996676666655556654646796666666544666666666666644",
"77666644699779996667655654444466666467996666664456666666666664447766664469977999666765565444446666646799666666445666666666666444",
"99966645699669996666555544444566666469096666666666666666666676649996664569966999666655554444456666646909666666666666666666667664",
"99966446999666666665455666545666666579096666666666666666666697979996644699966666666545566654566666657909666666666666666666669797",
"90996467997666666656566666545666666679976666677997646666996697769099646799766666665656666654566666667997666667799764666699669776",
"99966670097666666655666667655666566667966666799099666966696697649996667009766666665566666765566656666796666679909966696669669764",
"9996669qq966666666667799777656665666677666679900q0979976699797649996669qq966666666667799777656665666677666679900q097997669979764",
"796666qq99666677666699999666666656666776666799999999996666999776796666qq99666677666699999666666656666776666799999999996666999776",
"6666469q994*49q9767799q997666666656667766799999966666666669999qq6666469q994*49q9767799q997666666656667766799999966666666669999qq",
"6666460q074:69q097999q9997666666666667999999999666666666666779906666460q074:69q097999q999766666666666799999999966666666666677990",
"666666q095>:7909999q09799796966666667999999977666646666666667799666666q095>:7909999q09799796966666667999999977666646666666667799",
"79667909954590q999997669976666666666799999777976666797666666444479667909954590q9999976699766666666667999997779766667976666664444",
"99699099666790996666646676666666666679977779999776999666666444>>99699099666790996666646676666666666679977779999776999666666444>>",
"997799965679099666664447764446677666666666799999999096667666644>997799965679099666664447764446677666666666799999999096667666644>",
"99779974469q0966666666797644>4799666666667999779999976669669996699779974469q0966666666797644>47996666666679997799999766696699966",
"9996796447qq97666666799097644699976666666976646799976457979909979996796447qq9766666679909764469997666666697664679997645797990997",
"9999776469qq96666666699999966790764446797976444699964669766999999999776469qq9666666669999996679076444679797644469996466976699999",
"9976666466009666666666769996669976>:>69999764>4699996999766667999976666466009666666666769996669976>:>69999764>469999699976666799",
"9976566446909766666666666666679976>:29099776666977679909666666999976566446909766666666666666679976>:2909977666697767990966666699",
"7666566447909666666666655566790976438qqq9664679999990097655666667666566447909666666666655566790976438qqq966467999999009765566666",
"6666666669909666666665554456790966570qq99644699999999776656666666666666669909666666665554456790966570qq9964469999999977665666666",
"6666666667799766666544444446699766690q0966>4669900099666666666666666666667799766666544444446699766690q0966>466990009966666666666",
"66666656556997665555444444666666656799976644467909964>466664456666666656556997665555444444666666656799976644467909964>4666644566",
"666666664>4797645666446665666666555669996654>479976>::6676666667666666664>4797645666446665666666555669996654>479976>::6676666667",
"556666664>599764466666666666666664>>699766776900966>239976676999556666664>599764466666666666666664>>699766776900966>239976676999",
"566666664469096446966666666555554>2>6996666779096665670976679999566666664469096446966666666555554>2>6996666779096665670976679999",
"466666666679094>4797666797544544>4369996666699096676799976567776466666666679094>4797666797544544>4369996666699096676799976567776",
"66666669999999446997669997544444690909966556799999976776655566666666666999999944699766999754444469090996655679999997677665556666",
"666666799999966469999999965446467qq99997665666999996655544466666666666799999966469999999965446467qq99997665666999996655544466666",
"796669997999666467099997665456670q066666666666679976554444456666796669997999666467099997665456670q066666666666679976554444456666",
"77569966676666646709966654446666999666777766467997664444444566667756996667666664670996665444666699966677776646799766444444456666",
"77679977776666646909765444466666667666999966469997666444444567777767997777666664690976544446666666766699996646999766644444456777",
"66799966676667769997654444455545666679009976699996666664444466996679996667666776999765444445554566667900997669999666666444446699",
"66999666666679669996654444444445544>690996666799766666664444669966999666666679669996654444444445544>6909966667997666666644446699",
"6666666666679766997654544444446664>479076555666666666666644446796666666666679766997654544444446664>47907655566666666666664444679",
"46666666666996466766445444444566666690965555666655566666644446794666666666699646676644544444456666669096555566665556666664444679",
"66666666977766679966446665545666679909765556666655466666665446796666666697776667996644666554566667990976555666665546666666544679",
"67776669999766799966446666645666799966666556666646666656666656796777666999976679996644666664566679996666655666664666665666665679",
"799977799996669999765566666666667664>>466644>4>46766666666666566799977799996669999765566666666667664>>466644>4>46766666666666566",
"79999990976666667766566766655669964>::4444>>>446696666666666644479999990976666667766566766655669964>::4444>>>4466966666666666444",
"799qqwww076776666666466666555679764>>66776466667999777666777764>799qqwww076776666666466666555679764>>66776466667999777666777764>",
"799weeew99797666666656666555466767666999999990900999999979999664799weeew99797666666656666555466767666999999990900999999979999664",
"79qeeeeq999999667665466665444566676690qq00909000999999999999999979qeeeeq999999667665466665444566676690qq009090009999999999999999",
"79qqwq097779999676666666665444656666900997799999977766666677969979qqwq0977799996766666666654446566669009977999999777666666779699",
"7990qq97666790966666667766645444456699976666666666644444455666777990qq9766679096666666776664544445669997666666666664444445566677",
"6669q076667699977997799997665444444666655456666665544444455565676669q07666769997799779999766544444466665545666666554444445556567",
"669qq0766699099999999qqq0966444444445454445666666544444444456477669qq0766699099999999qqq0966444444445454445666666544444444456477",
"670wq96776999990qqqqqwwq0966544444444444455666666554444444566477670wq96776999990qqqqqwwq0966544444444444455666666554444444566477",
"79qw09797799990qqqqqwww0966654444444444454666666556644444445647779qw09797799990qqqqqwww09666544444444444546666665566444444456477",
"69997779779999qqqqqqqq99666654444444466654546555456654444666647769997779779999qqqqqqqq996666544444444666545465554566544446666477",
"66976667779990qqq00q0976767664544445666644655444444555446666657766976667779990qqq00q09767676645444456666446554444445554466666577",
"66666666677799qqqq099666766656664444667545654444444666666666666766666666677799qqqq0996667666566644446675456544444446666666666667",
"66555666677669qqq0997776666666664456677666665444445666666666666666555666677669qqq09977766666666644566776666654444456666666666666",
"66544666667667009996667666655666445667966666644444666666666666666654466666766700999666766665566644566796666664444466666666666666",
"66666666679667009966766666555566546467966666665446666666666666446666666667966700996676666655556654646796666666544666666666666644",
"77666644699779996667655654444466666467996666664456666666666664447766664469977999666765565444446666646799666666445666666666666444",
"99966645699669996666555544444566666469096666666666666666666676649996664569966999666655554444456666646909666666666666666666667664",
"99966446999666666665455666545666666579096666666666666666666697979996644699966666666545566654566666657909666666666666666666669797",
"90996467997666666656566666545666666679976666679997646666666697769099646799766666665656666654566666667997666667999764666666669776",
"99966670097666666655666666655666566667966666799909666966666697649996667009766666665566666665566656666796666679990966696666669764",
"9996669099666666666666666666566656666796666699qqq0979996666797649996669099666666666666666666566656666796666699qqq097999666679764",
"796669q09666666666666666666666665666679666679qqq0999097666999776796669q09666666666666666666666665666679666679qqq0999097666999776",
"666679097666666666666666666666666555799776679qqq0999996666999777666679097666666666666666666666666555799776679qqq0999996666999777",
"44469096666679666966666666666666555679997666790006679966799997774446909666667966696666666666666655567999766679000667996679999777",
"4>>46744676679679996666666666666655677699776990096679966666696764>>4674467667967999666666666666665567769977699009667996666669676",
"444666>479667079909666666666666666666669999999974479996666667666444666>479667079909666666666666666666669999999974479996666667666",
"6677664699469q79799665566666666666666690q0009096>47999666666644>6677664699469q79799665566666666666666690q0009096>47999666666644>",
"7999999997469q997997654666666666679999qqwqq09964>6009966666664547999999997469q997997654666666666679999qqwqq09964>600996666666454",
"799990q0976790997997644666666666799990qwewq999667909976666676677799990q0976790997997644666666666799990qwewq999667909976666676677",
"77990q0099799977797654456779977799990qweew099977990997666669999977990q0099799977797654456779977799990qweew0999779909976666699999",
"6799999999909966666644445666666667999qwewq99997999999666666669996799999999909966666644445666666667999qwewq9999799999966666666999",
"6667976667999666666544444455666667999qweqq90997666777666666666776667976667999666666544444455666667999qweqq9099766677766666666677",
"6666666669999666666666444444556669900qewqq00997666666666666666776666666669999666666666444444556669900qewqq0099766666666666666677",
"55666556666776666766664444444566990qqwqqq0099666666666666666666655666556666776666766664444444566990qqwqqq00996666666666666666666",
"5566655666466667996766544444456699qqeeqqqq09776666666666666666665566655666466667996766544444456699qqeeqqqq0977666666666666666666",
"6666666666>56679q99666644444466669qeewq00996766666666666666666666666666666>56679q99666644444466669qeewq0099676666666666666666666",
"666666666646790qq99666665444566469weeq97777666666666666666656567666666666646790qq99666665444566469weeq97777666666666666666656567",
"6666666666457qqq09966665444667669qeeq9634666665666555565656565776666666666457qqq09966665444667669qeeq963466666566655556565656577",
"6666666664>49qq99776666445666990qreq06326766655666665565666665676666666664>49qq99776666445666990qreq0632676665566666556566666567",
"665565556>:39q09777666445667990weeq09336996665566666666665666677665565556>:39q09777666445667990weeq09336996665566666666665666677",
"766554666>>69q976666664466699qqeeeq96469096665666666666665556667766554666>>69q976666664466699qqeeeq96469096665666666666665556667",
"766654665>>690976666664456790wweww096479976666666666666666556577766654665>>690976666664456790wweww096479976666666666666666556577",
"7666446654479096666666554669qwweqq0746909667776666666666666666677666446654479096666666554669qwweqq074690966777666666666666666667",
"7666454664>699966666666656679qwwq09646997667996679666666666666777666454664>699966666666656679qwwq0964699766799667966666666666677",
"76664446644690976666666665670qwq9975679766679956699666666666667776664446644690976666666665670qwq99756797666799566996666666666677",
"76666566664790977776546665670qw09666999666669656799666666655666676666566664790977776546665670qw096669996666696567996666666556666",
"7666666666699096779666796679qqq9666799766666776799966666666665667666666666699096779666796679qqq966679976666677679996666666666566",
"76666666666999767996679766690097666776666666799999766666666665547666666666699976799667976669009766677666666679999976666666666554",
"76666666666909666666799766679097766666666666799999766677976666547666666666690966666679976667909776666666666679999976667797666654",
"77666666679996666666666776679099766666666666766999664466767766647766666667999666666666677667909976666666666676699966446676776664",
"76666667799996666666666777799009966666976666666666664477666766667666666779999666666666677779900996666697666666666666447766676666",
"7779999999999666666676667790q099966679976666666666766696446646677779999999999666666676667790q09996667997666666666676669644664667",
"766767676666766666666664460qq99976667997666666666999990644444679766767676666766666666664460qq99976667997666666666999990644444679",
"65566797544799766679964>46qwq996666666777766776699000q096666699965566797544799766679964>46qwq996666666777766776699000q0966666999",
"76677999646909997799976460qq97666666666999679667q00999999999909976677999646909997799976460qq97666666666999679667q009999999999099",
"79999999779qq099799909779eeq97676655567999996466999966990099097679999999779qq099799909779eeq976766555679999964669999669900990976",
"90q099997690q96699999767qeq977766445676766675457999666669997976590q099997690q96699999767qeq9777664456767666754579996666699979765",
"799966666669066699966469qq96666664467966666666679996666666666644799966666669066699966469qq96666664467966666666679996666666666644",
"667666677467066690976460q09666666>479966666677790096666665545666667666677467066690976460q09666666>479966666677790096666665545666",
"66666669666797679096469q097656666447096666667699q97666666555666666666669666797679096469q097656666447096666667699q976666665556666",
"6666667964389067900769qq97655566646909666666669999666666666666666666667964389067900769qq9765556664690966666666999966666666666666",
"6666667644479q99900999q096665655666909666666666997666666655666676666667644479q99900999q09666565566690966666666699766666665566667",
"6666666666790q979909999976666655666999666666666666699996655566796666666666790q97990999997666665566699966666666666669999665556679",
"6666666669qqqq099909997666666665666999666676767666990q97656666676666666669qqqq099909997666666665666999666676767666990q9765666667",
"666666790wwqqqq0q0996666666666666667976667999996679qwq9766666677666666790wwqqqq0q0996666666666666667976667999996679qwq9766666677",
"66666990qqqqqqqq09996656666666666666666699qqq99679qwwq966666667766666990qqqqqqqq09996656666666666666666699qqq99679qwwq9666666677",
"6669999qqqqqqq099997655566666666665556669qqq09999qweq976666666676669999qqqqqqq099997655566666666665556669qqq09999qweq97666666667",
"6699900qqwwqq0996666644666766666666555699qqq09999qeeq766666666666699900qqwwqq0996666644666766666666555699qqq09999qeeq76666666666",
"4464666467977666665444>4>44>:>44544>55666666664666666544444444564464666467977666665444>4>44>:>44544>5566666666466666654444444456",
"$####+. X$>-$###$$$--$####+. .+$>-$###$$$--$####+. .O++&$#$$$---$####+. X$>-$###$$$--$####+. .+$>-$###$$$--$####+. .O++&$#$$$---",
"-$---#X.@<5,$$$---,,,-$---#X.@*<5,$$$---,,,-$---#X.O+#&*,#--,,,,-$---#X.@<5,$$$---,,,-$---#X.@*<5,$$$---,,,-$---#X.O+#&*,#--,,,,",
"11151$@.+575--111555511151$@.+:575--111555511151$@.+**:45-15555511151$@.+575--111555511151$@.+:575--111555511151$@.+**:45-155555"
};
